<?xml version="1.0" standalone="no"?>
<!DOCTYPE svg PUBLIC "-//W3C//DTD SVG 20010904//EN"
 "http://www.w3.org/TR/2001/REC-SVG-20010904/DTD/svg10.dtd">
<svg version="1.0" xmlns="http://www.w3.org/2000/svg"
 width="260.000000pt" height="260.000000pt" viewBox="0 0 260.000000 260.000000"
 preserveAspectRatio="xMidYMid meet">
<metadata>
Created by potrace 1.11, written by Peter Selinger 2001-2013
</metadata>
<g transform="translate(0.000000,260.000000) scale(0.100000,-0.100000)"
fill="#000000" stroke="none">
<path d="M1076 2083 c-3 -3 -25 -7 -48 -8 -61 -4 -108 -14 -142 -30 -16 -8
-32 -12 -36 -10 -5 3 -10 2 -12 -3 -1 -4 -23 -20 -48 -34 -57 -33 -123 -96
-115 -108 3 -6 2 -10 -4 -10 -6 0 -8 -7 -5 -15 4 -8 0 -23 -7 -32 -10 -11 -10
-14 -2 -9 9 5 11 2 7 -8 -3 -9 -10 -13 -15 -10 -5 3 -19 -2 -31 -10 -12 -9
-30 -16 -40 -16 -10 0 -18 -3 -18 -7 0 -5 -12 -9 -26 -9 -14 -1 -32 -10 -40
-20 -9 -11 -13 -13 -9 -7 4 8 -6 6 -24 -4 -16 -10 -27 -21 -25 -25 3 -5 -4 -8
-15 -8 -11 0 -26 -7 -35 -15 -8 -8 -17 -15 -20 -15 -3 0 -17 -11 -32 -25 -15
-14 -24 -25 -21 -25 4 0 -7 -13 -23 -29 -17 -15 -30 -33 -30 -40 0 -6 -4 -11
-9 -11 -5 0 -12 -10 -16 -22 -4 -13 -8 -26 -10 -30 -6 -19 -7 -23 -6 -30 0 -5
-3 -8 -8 -8 -11 0 -9 -19 3 -39 6 -10 5 -12 -3 -7 -9 6 -10 0 -5 -21 4 -15 11
-29 16 -31 15 -6 8 -19 -32 -62 -22 -23 -40 -50 -41 -59 -5 -73 -2 -100 11
-126 15 -29 60 -82 60 -70 0 4 7 -1 16 -9 8 -9 24 -16 34 -16 10 0 21 -4 24
-8 2 -4 19 -9 37 -10 17 -1 37 -6 43 -10 14 -9 236 -11 231 -2 -3 4 6 5 18 3
18 -4 23 -12 24 -36 2 -50 8 -80 22 -106 7 -13 8 -21 3 -17 -6 3 2 -16 17 -44
19 -34 26 -61 24 -87 -1 -20 2 -42 8 -49 6 -8 6 -14 0 -18 -14 -9 25 -82 55
-103 14 -10 34 -26 44 -35 10 -9 21 -14 24 -10 3 3 6 1 6 -5 0 -5 6 -10 13
-10 22 -1 41 -8 55 -20 7 -7 19 -13 25 -14 7 0 21 -3 32 -5 11 -3 28 -5 38 -5
9 0 17 -3 17 -7 0 -4 43 -7 95 -6 52 0 92 -2 90 -6 -5 -8 52 -3 66 5 5 4 9 1
9 -5 0 -8 6 -7 21 1 17 9 20 8 14 -2 -6 -8 -4 -10 6 -3 8 4 45 9 84 10 84 2
182 13 211 25 12 4 25 5 28 2 3 -4 6 -1 6 5 0 7 3 11 8 11 4 -1 10 0 15 1 4 1
10 3 15 5 16 4 68 27 123 54 32 16 70 27 84 26 14 -2 25 0 25 4 0 4 9 7 21 8
11 1 33 10 47 20 15 9 30 16 35 15 4 -1 7 5 7 13 0 8 5 15 11 15 5 0 7 5 4 10
-3 6 1 13 9 16 9 3 14 10 11 14 -9 14 7 40 24 40 9 0 31 9 49 20 17 11 32 16
32 12 0 -4 5 1 11 10 5 10 15 18 22 18 7 0 21 13 32 29 10 16 23 27 29 24 5
-3 6 -2 3 4 -3 5 0 21 8 36 8 15 11 27 8 27 -3 0 -1 6 4 13 6 6 9 40 8 74 -1
41 3 73 13 90 26 48 34 267 12 318 -7 17 -14 36 -16 44 -1 8 -6 17 -11 20 -4
3 -14 18 -22 33 -8 15 -18 25 -23 22 -4 -3 -8 2 -8 10 0 9 -4 16 -8 16 -17 0
-47 35 -47 55 1 11 -4 23 -10 27 -6 5 -6 8 2 8 9 0 10 7 5 23 -5 12 -7 32 -6
45 0 12 -3 22 -7 22 -5 0 -9 7 -9 15 0 16 -17 50 -35 71 -5 6 -17 22 -25 34
-27 39 -47 60 -59 60 -7 0 -9 5 -6 10 3 6 -1 10 -9 10 -9 0 -16 5 -16 10 0 6
-7 10 -15 10 -8 0 -15 5 -15 11 0 6 -7 9 -15 5 -8 -3 -18 2 -23 10 -5 8 -18
16 -30 17 -12 1 -22 5 -22 9 0 4 -9 8 -19 8 -11 0 -23 5 -26 10 -3 6 -16 10
-29 10 -12 0 -27 5 -32 10 -12 12 -155 16 -229 6 -35 -4 -58 -1 -78 9 -15 8
-25 10 -22 5 4 -6 2 -10 -4 -10 -5 0 -13 5 -16 10 -4 6 -11 8 -16 5 -5 -4 -9
-1 -9 5 0 6 -4 8 -10 5 -5 -3 -10 -1 -10 5 0 7 -6 10 -12 7 -7 -2 -22 0 -33 6
-21 11 -42 15 -111 20 -22 2 -45 6 -50 9 -5 3 -18 2 -29 -2 -11 -4 -34 -4 -52
0 -18 4 -34 5 -37 3z"/>
</g>
</svg>
